<svg width="800" height="600" viewBox="0 0 800 600" xmlns="http://www.w3.org/2000/svg">
  <!-- Dashboard Background -->
  <rect width="800" height="600" fill="#f8fafc" />
  
  <!-- Header -->
  <rect width="800" height="70" fill="#2563eb" />
  <text x="30" y="45" font-family="Arial" font-size="24" font-weight="bold" fill="white">Landlord Dashboard</text>
  
  <!-- Navigation -->
  <rect x="650" y="20" width="120" height="30" rx="15" fill="white" fill-opacity="0.2" />
  <text x="675" y="40" font-family="Arial" font-size="14" fill="white">Settings</text>
  <rect x="550" y="20" width="80" height="30" rx="15" fill="white" fill-opacity="0.2" />
  <text x="565" y="40" font-family="Arial" font-size="14" fill="white">Profile</text>
  
  <!-- Stats Cards -->
  <rect x="30" y="100" width="220" height="120" rx="8" fill="white" stroke="#e2e8f0" />
  <rect x="30" y="100" width="220" height="40" rx="8" fill="#bfdbfe" />
  <text x="45" y="125" font-family="Arial" font-size="16" font-weight="bold" fill="#1e40af">Total Properties</text>
  <text x="45" y="180" font-family="Arial" font-size="36" font-weight="bold" fill="#1e3a8a">12</text>
  
  <rect x="270" y="100" width="220" height="120" rx="8" fill="white" stroke="#e2e8f0" />
  <rect x="270" y="100" width="220" height="40" rx="8" fill="#bbf7d0" />
  <text x="285" y="125" font-family="Arial" font-size="16" font-weight="bold" fill="#166534">Total Income</text>
  <text x="285" y="180" font-family="Arial" font-size="36" font-weight="bold" fill="#166534">$24,500</text>
  
  <rect x="510" y="100" width="220" height="120" rx="8" fill="white" stroke="#e2e8f0" />
  <rect x="510" y="100" width="220" height="40" rx="8" fill="#fef08a" />
  <text x="525" y="125" font-family="Arial" font-size="16" font-weight="bold" fill="#854d0e">Occupancy Rate</text>
  <text x="525" y="180" font-family="Arial" font-size="36" font-weight="bold" fill="#854d0e">92%</text>
  
  <!-- Recent Transactions -->
  <rect x="30" y="250" width="450" height="320" rx="8" fill="white" stroke="#e2e8f0" />
  <text x="50" y="290" font-family="Arial" font-size="20" font-weight="bold" fill="#334155">Recent Transactions</text>
  
  <line x1="50" y1="310" x2="430" y2="310" stroke="#e2e8f0" stroke-width="2" />
  
  <text x="50" y="340" font-family="Arial" font-size="16" fill="#334155">John Smith - Apt 301</text>
  <text x="400" y="340" font-family="Arial" font-size="16" font-weight="bold" fill="#16a34a">+$3,500</text>
  
  <line x1="50" y1="360" x2="430" y2="360" stroke="#e2e8f0" stroke-width="1" />
  
  <text x="50" y="390" font-family="Arial" font-size="16" fill="#334155">Sarah Johnson - Apt 205</text>
  <text x="400" y="390" font-family="Arial" font-size="16" font-weight="bold" fill="#16a34a">+$2,800</text>
  
  <line x1="50" y1="410" x2="430" y2="410" stroke="#e2e8f0" stroke-width="1" />
  
  <text x="50" y="440" font-family="Arial" font-size="16" fill="#334155">Utilities - Building A</text>
  <text x="400" y="440" font-family="Arial" font-size="16" font-weight="bold" fill="#dc2626">-$1,200</text>
  
  <line x1="50" y1="460" x2="430" y2="460" stroke="#e2e8f0" stroke-width="1" />
  
  <text x="50" y="490" font-family="Arial" font-size="16" fill="#334155">Michael Brown - Apt 110</text>
  <text x="400" y="490" font-family="Arial" font-size="16" font-weight="bold" fill="#16a34a">+$3,200</text>
  
  <line x1="50" y1="510" x2="430" y2="510" stroke="#e2e8f0" stroke-width="1" />
  
  <text x="50" y="540" font-family="Arial" font-size="16" fill="#334155">Maintenance - Plumbing</text>
  <text x="400" y="540" font-family="Arial" font-size="16" font-weight="bold" fill="#dc2626">-$850</text>
  
  <!-- Property Status -->
  <rect x="510" y="250" width="260" height="320" rx="8" fill="white" stroke="#e2e8f0" />
  <text x="530" y="290" font-family="Arial" font-size="20" font-weight="bold" fill="#334155">Property Status</text>
  
  <!-- Pie Chart -->
  <circle cx="640" cy="400" r="80" fill="transparent" stroke="#e2e8f0" stroke-width="2" />
  <path d="M 640 400 L 640 320 A 80 80 0 0 1 713 447 Z" fill="#2563eb" />
  <path d="M 640 400 L 713 447 A 80 80 0 0 1 567 447 Z" fill="#16a34a" />
  <path d="M 640 400 L 567 447 A 80 80 0 0 1 640 320 Z" fill="#eab308" />
  
  <rect x="530" y="500" width="20" height="20" fill="#2563eb" />
  <text x="560" y="515" font-family="Arial" font-size="14" fill="#334155">Occupied (75%)</text>
  
  <rect x="530" y="530" width="20" height="20" fill="#16a34a" />
  <text x="560" y="545" font-family="Arial" font-size="14" fill="#334155">Available (17%)</text>
  
  <rect x="530" y="560" width="20" height="20" fill="#eab308" />
  <text x="560" y="575" font-family="Arial" font-size="14" fill="#334155">Maintenance (8%)</text>
</svg>