<svg width="800" height="600" viewBox="0 0 800 600" xmlns="http://www.w3.org/2000/svg">
  <!-- Background -->
  <rect width="800" height="600" fill="#f8fafc" />
  
  <!-- Header -->
  <rect width="800" height="70" fill="#4f46e5" />
  <text x="30" y="45" font-family="Arial" font-size="24" font-weight="bold" fill="white">Tenant Management</text>
  
  <!-- Search Bar -->
  <rect x="500" y="20" width="270" height="30" rx="15" fill="white" />
  <text x="520" y="40" font-family="Arial" font-size="14" fill="#94a3b8">Search tenants...</text>
  <circle cx="750" cy="35" r="10" fill="#4f46e5" />
  <path d="M 747 32 L 753 38 M 753 32 L 747 38" stroke="white" stroke-width="2" />
  
  <!-- Filters -->
  <rect x="30" y="100" width="740" height="50" rx="8" fill="white" stroke="#e2e8f0" />
  <text x="50" y="130" font-family="Arial" font-size="16" font-weight="bold" fill="#334155">All Tenants (12)</text>
  
  <rect x="200" y="110" width="100" height="30" rx="15" fill="#e0e7ff" />
  <text x="220" y="130" font-family="Arial" font-size="14" fill="#4338ca">Active</text>
  
  <rect x="310" y="110" width="100" height="30" rx="15" fill="#f1f5f9" />
  <text x="330" y="130" font-family="Arial" font-size="14" fill="#64748b">Past</text>
  
  <rect x="420" y="110" width="100" height="30" rx="15" fill="#f1f5f9" />
  <text x="435" y="130" font-family="Arial" font-size="14" fill="#64748b">Pending</text>
  
  <rect x="650" y="110" width="120" height="30" rx="15" fill="#818cf8" />
  <text x="670" y="130" font-family="Arial" font-size="14" fill="white">Add Tenant</text>
  
  <!-- Tenant Cards -->
  <!-- Tenant 1 -->
  <rect x="30" y="180" width="740" height="100" rx="8" fill="white" stroke="#e2e8f0" />
  <circle cx="80" cy="230" r="30" fill="#e0e7ff" />
  <text x="80" y="235" font-family="Arial" font-size="20" font-weight="bold" fill="#4338ca" text-anchor="middle">JS</text>
  
  <text x="130" y="210" font-family="Arial" font-size="18" font-weight="bold" fill="#334155">John Smith</text>
  <text x="130" y="235" font-family="Arial" font-size="14" fill="#64748b">Apt 301 | Lease ends: Jun 30, 2024</text>
  <text x="130" y="260" font-family="Arial" font-size="14" fill="#64748b">Phone: (555) 123-4567 | Email: john.smith@example.com</text>
  
  <rect x="650" y="210" width="80" height="30" rx="15" fill="#dcfce7" />
  <text x="670" y="230" font-family="Arial" font-size="14" font-weight="bold" fill="#166534">Paid</text>
  
  <!-- Tenant 2 -->
  <rect x="30" y="300" width="740" height="100" rx="8" fill="white" stroke="#e2e8f0" />
  <circle cx="80" cy="350" r="30" fill="#dbeafe" />
  <text x="80" y="355" font-family="Arial" font-size="20" font-weight="bold" fill="#1e40af" text-anchor="middle">SJ</text>
  
  <text x="130" y="330" font-family="Arial" font-size="18" font-weight="bold" fill="#334155">Sarah Johnson</text>
  <text x="130" y="355" font-family="Arial" font-size="14" fill="#64748b">Apt 205 | Lease ends: Aug 15, 2024</text>
  <text x="130" y="380" font-family="Arial" font-size="14" fill="#64748b">Phone: (555) 987-6543 | Email: sarah.j@example.com</text>
  
  <rect x="650" y="330" width="80" height="30" rx="15" fill="#dcfce7" />
  <text x="670" y="350" font-family="Arial" font-size="14" font-weight="bold" fill="#166534">Paid</text>
  
  <!-- Tenant 3 -->
  <rect x="30" y="420" width="740" height="100" rx="8" fill="white" stroke="#e2e8f0" />
  <circle cx="80" cy="470" r="30" fill="#fee2e2" />
  <text x="80" y="475" font-family="Arial" font-size="20" font-weight="bold" fill="#b91c1c" text-anchor="middle">MB</text>
  
  <text x="130" y="450" font-family="Arial" font-size="18" font-weight="bold" fill="#334155">Michael Brown</text>
  <text x="130" y="475" font-family="Arial" font-size="14" fill="#64748b">Apt 110 | Lease ends: May 20, 2024</text>
  <text x="130" y="500" font-family="Arial" font-size="14" fill="#64748b">Phone: (555) 456-7890 | Email: m.brown@example.com</text>
  
  <rect x="650" y="450" width="80" height="30" rx="15" fill="#fef3c7" />
  <text x="665" y="470" font-family="Arial" font-size="14" font-weight="bold" fill="#854d0e">Pending</text>
  
  <!-- Pagination -->
  <rect x="30" y="550" width="740" height="30" rx="8" fill="white" stroke="#e2e8f0" />
  <text x="350" y="570" font-family="Arial" font-size="14" fill="#64748b">Page 1 of 4</text>
  
  <rect x="450" y="550" width="30" height="30" rx="4" fill="#4f46e5" />
  <text x="465" y="570" font-family="Arial" font-size="14" font-weight="bold" fill="white" text-anchor="middle">1</text>
  
  <rect x="490" y="550" width="30" height="30" rx="4" fill="#f1f5f9" />
  <text x="505" y="570" font-family="Arial" font-size="14" fill="#64748b" text-anchor="middle">2</text>
  
  <rect x="530" y="550" width="30" height="30" rx="4" fill="#f1f5f9" />
  <text x="545" y="570" font-family="Arial" font-size="14" fill="#64748b" text-anchor="middle">3</text>
  
  <rect x="570" y="550" width="30" height="30" rx="4" fill="#f1f5f9" />
  <text x="585" y="570" font-family="Arial" font-size="14" fill="#64748b" text-anchor="middle">4</text>
  
  <rect x="610" y="550" width="80" height="30" rx="4" fill="#f1f5f9" />
  <text x="650" y="570" font-family="Arial" font-size="14" fill="#64748b" text-anchor="middle">Next</text>
</svg>